<?xml version="1.0" encoding="UTF-8" standalone="no"?>
<svg
   xmlns:dc="http://purl.org/dc/elements/1.1/"
   xmlns:cc="http://creativecommons.org/ns#"
   xmlns:rdf="http://www.w3.org/1999/02/22-rdf-syntax-ns#"
   xmlns:svg="http://www.w3.org/2000/svg"
   xmlns="http://www.w3.org/2000/svg"
   version="1.1"
   id="svg2"
   xml:space="preserve"
   width="666.66669"
   height="666.66669"
   viewBox="0 0 666.66669 666.66669"><metadata
     id="metadata8"><rdf:RDF><cc:Work
         rdf:about=""><dc:format>image/svg+xml</dc:format><dc:type
           rdf:resource="http://purl.org/dc/dcmitype/StillImage" /><dc:title></dc:title></cc:Work></rdf:RDF></metadata><defs
     id="defs6"><clipPath
       clipPathUnits="userSpaceOnUse"
       id="clipPath18"><path
         d="M 0,500 H 500 V 0 H 0 Z"
         id="path16" /></clipPath><clipPath
       clipPathUnits="userSpaceOnUse"
       id="clipPath30"><path
         d="m 446.486,53.6396 h 7 v -7 h -7 z"
         id="path28" /></clipPath><clipPath
       clipPathUnits="userSpaceOnUse"
       id="clipPath74"><path
         d="M 27.6219,444.548 H 475.939 V 38.936 H 27.6219 Z"
         id="path72" /></clipPath><clipPath
       clipPathUnits="userSpaceOnUse"
       id="clipPath90"><path
         d="M 31.5989,440.829 H 471.145 V 62.0626 H 31.5989 Z"
         id="path88" /></clipPath><clipPath
       clipPathUnits="userSpaceOnUse"
       id="clipPath106"><path
         d="M 35.7091,92.0339 H 118.984 V 32.0914 H 35.7091 Z"
         id="path104" /></clipPath><clipPath
       clipPathUnits="userSpaceOnUse"
       id="clipPath122"><path
         d="M 132.126,366.216 H 420.455 V 117.757 H 132.126 Z"
         id="path120" /></clipPath><clipPath
       clipPathUnits="userSpaceOnUse"
       id="clipPath138"><path
         d="m 438.696,354.295 h 12.585 v -12.586 h -12.585 z"
         id="path136" /></clipPath><clipPath
       clipPathUnits="userSpaceOnUse"
       id="clipPath154"><path
         d="m 168.399,475.361 h 44.499 v -44.499 h -44.499 z"
         id="path152" /></clipPath><clipPath
       clipPathUnits="userSpaceOnUse"
       id="clipPath170"><path
         d="m 470.482,266.058 h 13.823 v -13.823 h -13.823 z"
         id="path168" /></clipPath><clipPath
       clipPathUnits="userSpaceOnUse"
       id="clipPath186"><path
         d="m 456.274,460.023 h 13.822 v -13.822 h -13.822 z"
         id="path184" /></clipPath><clipPath
       clipPathUnits="userSpaceOnUse"
       id="clipPath202"><path
         d="m 55.9876,320.975 h 8.2221 v -8.222 h -8.2221 z"
         id="path200" /></clipPath><clipPath
       clipPathUnits="userSpaceOnUse"
       id="clipPath218"><path
         d="M 0,500 H 500 V 0 H 0 Z"
         id="path216" /></clipPath><clipPath
       clipPathUnits="userSpaceOnUse"
       id="clipPath226"><path
         d="M 46.1088,316.02 H 463.686 V 93.2476 H 46.1088 Z"
         id="path224" /></clipPath><clipPath
       clipPathUnits="userSpaceOnUse"
       id="clipPath230"><path
         d="m 410.779,233.3 h 52.907 v -52.905 h -52.907 z"
         id="path228" /></clipPath><clipPath
       clipPathUnits="userSpaceOnUse"
       id="clipPath290"><path
         d="M 120.638,359.165 H 229.003 V 218.823 H 120.638 Z"
         id="path288" /></clipPath><clipPath
       clipPathUnits="userSpaceOnUse"
       id="clipPath306"><path
         d="M 144.575,321.556 H 245.386 V 162.797 H 144.575 Z"
         id="path304" /></clipPath><clipPath
       clipPathUnits="userSpaceOnUse"
       id="clipPath330"><path
         d="m 228.721,434.142 h 69.315 v -69.99 h -69.315 z"
         id="path328" /></clipPath><clipPath
       clipPathUnits="userSpaceOnUse"
       id="clipPath370"><path
         d="m 358.514,402.966 h 3.609 v -3.609 h -3.609 z"
         id="path368" /></clipPath><clipPath
       clipPathUnits="userSpaceOnUse"
       id="clipPath386"><path
         d="m 347.371,399.648 h 21.625 v -9.288 h -21.625 z"
         id="path384" /></clipPath><clipPath
       clipPathUnits="userSpaceOnUse"
       id="clipPath402"><path
         d="M 251.254,392.603 H 397.702 V 196.617 H 251.254 Z"
         id="path400" /></clipPath><clipPath
       clipPathUnits="userSpaceOnUse"
       id="clipPath406"><path
         d="M 251.254,392.603 H 397.702 V 196.617 H 251.254 Z"
         id="path404" /></clipPath><clipPath
       clipPathUnits="userSpaceOnUse"
       id="clipPath434"><path
         d="m 290.834,383.18 h 93.004 V 278.399 h -93.004 z"
         id="path432" /></clipPath><clipPath
       clipPathUnits="userSpaceOnUse"
       id="clipPath450"><path
         d="M 282.841,346.367 H 370.98 V 241.586 h -88.139 z"
         id="path448" /></clipPath><clipPath
       clipPathUnits="userSpaceOnUse"
       id="clipPath534"><path
         d="M 67.5303,204.083 H 120.52 V 151.092 H 67.5303 Z"
         id="path532" /></clipPath><clipPath
       clipPathUnits="userSpaceOnUse"
       id="clipPath578"><path
         d="M 0,500 H 500 V 0 H 0 Z"
         id="path576" /></clipPath></defs><g
     id="g10"
     transform="matrix(1.3333333,0,0,-1.3333333,0,666.66667)"><g
       id="g12"><g
         id="g14"
         clip-path="url(#clipPath18)"><g
           id="g20"
           transform="translate(471.7324,93.4443)"><path
             d="M 0,0 C 0,-1.934 -1.566,-3.5 -3.5,-3.5 -5.433,-3.5 -7,-1.934 -7,0 -7,1.933 -5.433,3.5 -3.5,3.5 -1.566,3.5 0,1.933 0,0"
             style="fill:#4e69ff;fill-opacity:1;fill-rule:nonzero;stroke:none"
             id="path22" /></g><g
           id="g24"><g
             id="g26" /><g
             id="g38"><g
               clip-path="url(#clipPath30)"
               opacity="0.470001"
               id="g36"><g
                 transform="translate(453.4854,50.1396)"
                 id="g34"><path
                   d="M 0,0 C 0,-1.933 -1.566,-3.5 -3.5,-3.5 -5.433,-3.5 -7,-1.933 -7,0 -7,1.933 -5.433,3.5 -3.5,3.5 -1.566,3.5 0,1.933 0,0"
                   style="fill:#9fbfff;fill-opacity:1;fill-rule:nonzero;stroke:none"
                   id="path32" /></g></g></g></g><g
           id="g40"
           transform="translate(37.7378,413.519)"><path
             d="m 0,0 c 0,-1.502 -1.218,-2.72 -2.721,-2.72 -1.502,0 -2.72,1.218 -2.72,2.72 0,1.503 1.218,2.721 2.72,2.721 C -1.218,2.721 0,1.503 0,0"
             style="fill:#9fbfff;fill-opacity:1;fill-rule:nonzero;stroke:none"
             id="path42" /></g><g
           id="g44"
           transform="translate(244.585,448.2598)"><path
             d="m 0,0 c 0,-2.68 -2.172,-4.852 -4.852,-4.852 -2.679,0 -4.852,2.172 -4.852,4.852 0,2.68 2.173,4.852 4.852,4.852 C -2.172,4.852 0,2.68 0,0"
             style="fill:#4e69ff;fill-opacity:1;fill-rule:nonzero;stroke:none"
             id="path46" /></g><g
           id="g48"
           transform="translate(39.5903,376.5776)"><path
             d="m 0,0 c 0,-2.525 -2.047,-4.573 -4.573,-4.573 -2.526,0 -4.573,2.048 -4.573,4.573 0,2.526 2.047,4.573 4.573,4.573 C -2.047,4.573 0,2.526 0,0"
             style="fill:#4e69ff;fill-opacity:1;fill-rule:nonzero;stroke:none"
             id="path50" /></g><g
           id="g52"
           transform="translate(71.6641,419.4072)"><path
             d="m 0,0 c 0,-0.948 -0.769,-1.717 -1.717,-1.717 -0.948,0 -1.717,0.769 -1.717,1.717 0,0.948 0.769,1.717 1.717,1.717 C -0.769,1.717 0,0.948 0,0"
             style="fill:#1b1b25;fill-opacity:1;fill-rule:nonzero;stroke:none"
             id="path54" /></g><g
           id="g56"
           transform="translate(437.1895,427.4404)"><path
             d="M 0,0 C -1.251,0.832 -1.591,2.521 -0.759,3.771 0.072,5.023 1.762,5.363 3.013,4.531 4.264,3.699 4.604,2.011 3.771,0.759 2.94,-0.492 1.252,-0.832 0,0"
             style="fill:#9fbfff;fill-opacity:1;fill-rule:nonzero;stroke:none"
             id="path58" /></g><g
           id="g60"
           transform="translate(403.3525,451.6411)"><path
             d="M 0,0 C -2.104,1.398 -2.675,4.237 -1.276,6.34 0.121,8.443 2.96,9.015 5.063,7.616 7.166,6.218 7.738,3.38 6.34,1.276 4.941,-0.827 2.103,-1.398 0,0"
             style="fill:#4e69ff;fill-opacity:1;fill-rule:nonzero;stroke:none"
             id="path62" /></g><g
           id="g64"
           transform="translate(429.9687,372.7788)"><path
             d="M 0,0 C -0.79,0.525 -1.005,1.591 -0.479,2.38 0.045,3.17 1.111,3.385 1.9,2.86 2.69,2.334 2.905,1.269 2.38,0.479 1.855,-0.31 0.789,-0.525 0,0"
             style="fill:#1b1b25;fill-opacity:1;fill-rule:nonzero;stroke:none"
             id="path66" /></g><g
           id="g68"><g
             id="g70" /><g
             id="g82"><g
               clip-path="url(#clipPath74)"
               opacity="0.179993"
               id="g80"><g
                 transform="translate(438.2158,89.2021)"
                 id="g78"><path
                   d="m 0,0 c 19.447,23.317 32.905,55.62 32.515,86.358 -0.406,31.89 -11.886,61.427 -6.413,94.138 3.129,18.704 10.403,36.71 11.486,55.644 5.117,89.461 -136.952,167.088 -194.628,83.415 -3.953,-5.736 -7.235,-12.085 -12.45,-16.705 -6.497,-5.757 -15.771,-8.224 -24.27,-6.455 -13.703,2.851 -25.198,13.594 -38.489,18.26 -12.032,4.225 -24.639,6.574 -37.376,7.104 -25.284,1.051 -50.827,-5.058 -73.159,-16.884 -44.607,-23.62 -73.575,-70.18 -66.839,-121.337 3.986,-30.274 20.73,-57.371 39.709,-81.292 36.301,-45.752 82.158,-83.612 132.876,-112.571 40.98,-23.399 86.787,-41.393 133.952,-39.849 C -61.389,-48.809 -24.617,-29.518 0,0"
                   style="fill:#9fbfff;fill-opacity:1;fill-rule:nonzero;stroke:none"
                   id="path76" /></g></g></g></g><g
           id="g84"><g
             id="g86" /><g
             id="g98"><g
               clip-path="url(#clipPath90)"
               opacity="0.470001"
               id="g96"><g
                 transform="translate(468.9902,178.876)"
                 id="g94"><path
                   d="m 0,0 c 5.117,27.82 1.265,60.193 -13.113,84.963 -14.916,25.697 -37.745,44.418 -48.266,73.47 -6.016,16.612 -8.349,34.553 -16.13,50.416 -36.767,74.948 -187.583,72.966 -196.119,-21.327 -0.585,-6.463 -0.345,-13.118 -2.464,-19.252 -2.639,-7.645 -9.038,-13.889 -16.745,-16.341 -12.426,-3.954 -26.669,-0.492 -39.591,-2.785 -11.697,-2.075 -23.005,-5.935 -33.584,-11.332 -21.002,-10.711 -38.939,-27.354 -51.655,-47.166 -25.399,-39.576 -27.613,-90.615 1.255,-129.054 17.083,-22.747 43.068,-37.081 69.413,-47.814 50.39,-20.529 104.927,-30.281 159.337,-30.585 43.964,-0.245 89.372,6.103 126.945,28.931 C -27.499,-67.694 -6.479,-35.218 0,0"
                   style="fill:#9fbfff;fill-opacity:1;fill-rule:nonzero;stroke:none"
                   id="path92" /></g></g></g></g><g
           id="g100"><g
             id="g102" /><g
             id="g114"><g
               clip-path="url(#clipPath106)"
               opacity="0.220001"
               id="g112"><g
                 transform="translate(35.8599,65.9189)"
                 id="g110"><path
                   d="m 0,0 c -1.779,-16.455 12.378,-31.479 31.62,-33.56 19.241,-2.08 49.651,8.128 51.429,24.582 1.779,16.455 -28.272,20.6 -44.26,30.37 C 16.491,35.018 1.779,16.454 0,0"
                   style="fill:#9fbfff;fill-opacity:1;fill-rule:nonzero;stroke:none"
                   id="path108" /></g></g></g></g><g
           id="g116"><g
             id="g118" /><g
             id="g130"><g
               clip-path="url(#clipPath122)"
               opacity="0.470001"
               id="g128"><g
                 transform="translate(419.042,194.3828)"
                 id="g126"><path
                   d="m 0,0 c 3.356,18.249 0.829,39.485 -8.603,55.733 -9.784,16.856 -24.758,29.137 -31.66,48.194 -3.946,10.897 -5.476,22.666 -10.581,33.072 -24.118,49.163 -123.049,47.863 -128.648,-13.99 -0.383,-4.24 -0.226,-8.605 -1.616,-12.629 -1.732,-5.015 -5.929,-9.11 -10.984,-10.719 -8.151,-2.594 -17.494,-0.324 -25.971,-1.827 -7.673,-1.361 -15.09,-3.893 -22.03,-7.433 -13.777,-7.027 -25.543,-17.943 -33.884,-30.941 -16.661,-25.959 -18.113,-59.439 0.823,-84.654 11.206,-14.922 28.251,-24.325 45.533,-31.365 33.055,-13.466 68.829,-19.863 104.52,-20.062 28.839,-0.161 58.625,4.003 83.272,18.976 C -18.039,-44.405 -4.25,-23.102 0,0"
                   style="fill:#9fbfff;fill-opacity:1;fill-rule:nonzero;stroke:none"
                   id="path124" /></g></g></g></g><g
           id="g132"><g
             id="g134" /><g
             id="g146"><g
               clip-path="url(#clipPath138)"
               opacity="0.309998"
               id="g144"><g
                 transform="translate(451.0566,346.3398)"
                 id="g142"><path
                   d="m 0,0 c -0.919,-3.351 -4.38,-5.323 -7.73,-4.405 -3.351,0.918 -5.324,4.379 -4.406,7.73 0.918,3.351 4.379,5.323 7.731,4.405 C -1.055,6.812 0.918,3.351 0,0"
                   style="fill:#9fbfff;fill-opacity:1;fill-rule:nonzero;stroke:none"
                   id="path140" /></g></g></g></g><g
           id="g148"><g
             id="g150" /><g
             id="g162"><g
               clip-path="url(#clipPath154)"
               opacity="0.309998"
               id="g160"><g
                 transform="translate(212.5615,449.2783)"
                 id="g158"><path
                   d="m 0,0 c -2.117,-12.102 -13.644,-20.197 -25.747,-18.08 -12.102,2.118 -20.196,13.645 -18.079,25.747 2.117,12.102 13.644,20.196 25.746,18.08 C -5.977,23.629 2.117,12.102 0,0"
                   style="fill:#9fbfff;fill-opacity:1;fill-rule:nonzero;stroke:none"
                   id="path156" /></g></g></g></g><g
           id="g164"><g
             id="g166" /><g
             id="g178"><g
               clip-path="url(#clipPath170)"
               opacity="0.309998"
               id="g176"><g
                 transform="translate(484.2002,257.9556)"
                 id="g174"><path
                   d="m 0,0 c -0.657,-3.759 -4.238,-6.273 -7.997,-5.616 -3.76,0.658 -6.274,4.239 -5.616,7.998 0.657,3.759 4.238,6.273 7.997,5.616 C -1.856,7.34 0.657,3.759 0,0"
                   style="fill:#9fbfff;fill-opacity:1;fill-rule:nonzero;stroke:none"
                   id="path172" /></g></g></g></g><g
           id="g180"><g
             id="g182" /><g
             id="g194"><g
               clip-path="url(#clipPath186)"
               opacity="0.309998"
               id="g192"><g
                 transform="translate(469.9922,451.9209)"
                 id="g190"><path
                   d="m 0,0 c -0.658,-3.759 -4.238,-6.273 -7.998,-5.616 -3.759,0.658 -6.273,4.239 -5.615,7.997 0.657,3.76 4.237,6.274 7.997,5.617 C -1.857,7.34 0.657,3.759 0,0"
                   style="fill:#9fbfff;fill-opacity:1;fill-rule:nonzero;stroke:none"
                   id="path188" /></g></g></g></g><g
           id="g196"><g
             id="g198" /><g
             id="g210"><g
               clip-path="url(#clipPath202)"
               opacity="0.309998"
               id="g208"><g
                 transform="translate(64.1475,316.1562)"
                 id="g206"><path
                   d="m 0,0 c -0.391,-2.236 -2.521,-3.732 -4.757,-3.341 -2.236,0.391 -3.732,2.521 -3.341,4.758 0.391,2.235 2.521,3.731 4.758,3.34 C -1.104,4.366 0.391,2.236 0,0"
                   style="fill:#9fbfff;fill-opacity:1;fill-rule:nonzero;stroke:none"
                   id="path204" /></g></g></g></g></g></g><g
       id="g212"><g
         id="g214"
         clip-path="url(#clipPath218)"><g
           id="g220"><g
             id="g222" /><g
             id="g258"><g
               clip-path="url(#clipPath226)"
               opacity="0.610001"
               id="g256"><g
                 transform="translate(375.2773,124.0918)"
                 id="g234"><path
                   d="M 0,0 C 16.326,4.264 26.141,21.014 21.877,37.341 17.613,53.667 0.863,63.481 -15.464,59.218 -31.79,54.954 -41.605,38.204 -37.342,21.877 -33.078,5.55 -16.327,-4.264 0,0 M -16.062,61.513 C 1.529,66.106 19.578,55.531 24.172,37.939 28.766,20.348 18.19,2.299 0.599,-2.295 c -17.593,-4.594 -35.642,5.981 -40.236,23.572 -4.593,17.592 5.981,35.642 23.575,40.236 M 5.352,71.362 4.463,71.62 c -4.087,1.192 -8.309,1.776 -12.546,1.738 l -0.924,-0.008 -3.189,12.215 c -0.397,1.516 -1.951,2.428 -3.468,2.033 l -13.5,-3.526 c -1.517,-0.396 -2.427,-1.952 -2.031,-3.468 l 3.19,-12.215 -0.81,-0.445 c -3.715,-2.039 -7.112,-4.612 -10.096,-7.65 l -0.649,-0.659 -10.896,6.385 c -1.354,0.793 -3.099,0.334 -3.888,-1.016 l -7.055,-12.038 c -0.791,-1.352 -0.336,-3.096 1.015,-3.888 l 10.899,-6.386 -0.259,-0.888 c -1.191,-4.086 -1.776,-8.308 -1.739,-12.546 l 0.008,-0.924 -12.213,-3.189 c -1.518,-0.397 -2.428,-1.952 -2.033,-3.467 l 3.526,-13.501 c 0.396,-1.517 1.95,-2.427 3.467,-2.031 l 12.214,3.189 0.445,-0.811 c 2.04,-3.714 4.614,-7.111 7.651,-10.093 l 0.66,-0.649 -6.386,-10.898 c -0.791,-1.353 -0.335,-3.096 1.016,-3.889 l 12.04,-7.052 c 1.348,-0.79 3.094,-0.336 3.888,1.016 l 6.384,10.896 0.888,-0.257 c 4.088,-1.192 8.31,-1.776 12.547,-1.738 l 0.924,0.008 3.189,-12.216 c 0.397,-1.515 1.952,-2.427 3.467,-2.032 l 13.501,3.526 c 1.517,0.396 2.427,1.952 2.031,3.467 l -3.19,12.216 0.811,0.444 c 3.714,2.04 7.111,4.613 10.093,7.651 l 0.65,0.659 10.898,-6.385 c 1.351,-0.791 3.097,-0.335 3.888,1.016 l 7.053,12.038 c 0.793,1.352 0.337,3.096 -1.015,3.888 l -10.898,6.385 0.258,0.889 c 1.192,4.087 1.776,8.309 1.738,12.546 l -0.008,0.924 12.216,3.189 c 1.515,0.397 2.427,1.951 2.032,3.467 l -3.526,13.501 c -0.396,1.517 -1.952,2.427 -3.467,2.031 l -12.216,-3.19 -0.444,0.81 c -2.04,3.715 -4.613,7.112 -7.651,10.095 l -0.659,0.649 6.385,10.898 c 0.792,1.353 0.337,3.096 -1.016,3.889 l -12.038,7.051 c -1.351,0.792 -3.097,0.336 -3.888,-1.014 z m -35.116,15.005 13.501,3.526 c 2.782,0.725 5.635,-0.947 6.362,-3.728 l 2.724,-10.436 c 3.85,-0.044 7.679,-0.575 11.412,-1.581 l 5.455,9.31 c 1.453,2.481 4.653,3.317 7.134,1.863 l 12.037,-7.052 c 2.481,-1.454 3.317,-4.654 1.864,-7.134 l -5.454,-9.311 c 2.702,-2.764 5.037,-5.846 6.958,-9.182 l 10.435,2.725 c 2.781,0.726 5.636,-0.945 6.362,-3.726 L 52.552,38.14 c 0.725,-2.782 -0.947,-5.635 -3.728,-6.362 L 38.388,29.054 c -0.045,-3.85 -0.575,-7.679 -1.581,-11.412 l 9.31,-5.455 C 48.598,10.733 49.434,7.533 47.98,5.053 L 40.928,-6.984 c -1.452,-2.482 -4.655,-3.318 -7.134,-1.864 l -9.311,5.454 c -2.764,-2.702 -5.846,-5.037 -9.182,-6.958 l 2.725,-10.435 c 0.726,-2.781 -0.945,-5.636 -3.726,-6.362 L 0.799,-30.675 c -2.781,-0.725 -5.635,0.946 -6.361,3.728 l -2.725,10.436 c -3.849,0.043 -7.68,0.574 -11.412,1.581 l -5.454,-9.31 c -1.455,-2.479 -4.653,-3.318 -7.134,-1.863 l -12.04,7.052 c -2.482,1.452 -3.317,4.654 -1.862,7.133 l 5.456,9.313 c -2.704,2.762 -5.038,5.844 -6.96,9.181 L -58.128,3.851 c -2.781,-0.726 -5.636,0.945 -6.362,3.726 l -3.526,13.501 c -0.725,2.781 0.947,5.635 3.728,6.361 l 10.435,2.725 c 0.045,3.851 0.576,7.68 1.582,11.412 l -9.312,5.455 c -2.481,1.453 -3.316,4.654 -1.862,7.134 l 7.054,12.038 c 1.456,2.485 4.653,3.315 7.134,1.862 l 9.31,-5.454 c 2.763,2.702 5.845,5.038 9.182,6.958 l -2.725,10.436 c -0.726,2.781 0.945,5.636 3.726,6.362"
                   style="fill:#ffffff;fill-opacity:1;fill-rule:nonzero;stroke:none"
                   id="path232" /></g><g
                 transform="translate(114.2935,225.958)"
                 id="g238"><path
                   d="M 0,0 C 16.327,4.263 26.141,21.014 21.877,37.34 17.614,53.667 0.864,63.481 -15.463,59.218 -31.79,54.955 -41.605,38.204 -37.341,21.877 -33.078,5.55 -16.327,-4.264 0,0 M -16.062,61.513 C 1.529,66.106 19.579,55.531 24.172,37.939 28.766,20.348 18.191,2.299 0.599,-2.295 -16.994,-6.889 -35.042,3.686 -39.636,21.277 -44.23,38.87 -33.655,56.918 -16.062,61.513 M 5.352,71.362 4.463,71.62 c -4.087,1.191 -8.308,1.776 -12.545,1.738 l -0.924,-0.008 -3.19,12.215 c -0.396,1.516 -1.951,2.428 -3.467,2.032 l -13.501,-3.525 c -1.516,-0.396 -2.426,-1.952 -2.031,-3.468 l 3.19,-12.215 -0.81,-0.445 c -3.714,-2.039 -7.111,-4.612 -10.096,-7.651 l -0.649,-0.658 -10.896,6.384 c -1.353,0.794 -3.098,0.335 -3.888,-1.015 l -7.054,-12.038 c -0.792,-1.352 -0.336,-3.096 1.015,-3.888 l 10.898,-6.386 -0.259,-0.888 c -1.19,-4.087 -1.776,-8.308 -1.739,-12.547 l 0.009,-0.924 -12.214,-3.189 c -1.517,-0.396 -2.428,-1.951 -2.032,-3.467 l 3.525,-13.5 c 0.396,-1.517 1.951,-2.428 3.468,-2.031 l 12.214,3.189 0.444,-0.811 c 2.04,-3.714 4.615,-7.111 7.651,-10.093 l 0.66,-0.649 -6.385,-10.898 c -0.791,-1.353 -0.336,-3.096 1.016,-3.889 l 12.039,-7.052 c 1.348,-0.79 3.095,-0.337 3.889,1.015 l 6.383,10.897 0.888,-0.257 c 4.089,-1.192 8.31,-1.776 12.547,-1.739 l 0.924,0.008 3.19,-12.215 c 0.396,-1.516 1.951,-2.427 3.467,-2.032 l 13.501,3.526 c 1.516,0.395 2.426,1.951 2.03,3.467 l -3.189,12.215 0.81,0.445 c 3.714,2.04 7.111,4.613 10.094,7.651 l 0.649,0.659 10.899,-6.385 c 1.35,-0.791 3.096,-0.335 3.888,1.016 l 7.053,12.037 c 0.792,1.353 0.336,3.097 -1.016,3.889 l -10.897,6.385 0.257,0.889 c 1.192,4.087 1.776,8.308 1.739,12.545 l -0.009,0.925 12.216,3.189 c 1.516,0.396 2.428,1.951 2.032,3.468 l -3.526,13.5 c -0.396,1.516 -1.951,2.427 -3.467,2.031 l -12.216,-3.19 -0.444,0.81 c -2.039,3.715 -4.613,7.111 -7.65,10.095 l -0.66,0.649 6.385,10.897 c 0.792,1.353 0.337,3.097 -1.015,3.889 l -12.038,7.052 c -1.351,0.792 -3.097,0.336 -3.889,-1.015 z m -35.115,15.005 13.501,3.525 c 2.781,0.726 5.635,-0.946 6.361,-3.727 l 2.725,-10.436 c 3.849,-0.045 7.678,-0.575 11.411,-1.581 l 5.456,9.31 c 1.452,2.481 4.652,3.317 7.134,1.863 l 12.037,-7.052 c 2.48,-1.454 3.316,-4.654 1.863,-7.134 l -5.454,-9.311 c 2.703,-2.765 5.037,-5.846 6.958,-9.182 l 10.436,2.725 c 2.781,0.726 5.635,-0.946 6.361,-3.727 l 3.526,-13.5 c 0.726,-2.782 -0.947,-5.635 -3.728,-6.362 L 38.388,29.053 c -0.044,-3.849 -0.574,-7.678 -1.58,-11.411 l 9.31,-5.456 c 2.48,-1.454 3.316,-4.654 1.862,-7.133 L 40.928,-6.985 c -1.451,-2.481 -4.654,-3.318 -7.134,-1.863 l -9.311,5.454 c -2.764,-2.703 -5.846,-5.037 -9.182,-6.958 l 2.725,-10.436 c 0.727,-2.78 -0.945,-5.635 -3.726,-6.361 L 0.799,-30.675 c -2.781,-0.726 -5.634,0.946 -6.361,3.728 l -2.725,10.436 c -3.849,0.043 -7.68,0.574 -11.412,1.58 l -5.454,-9.309 c -1.455,-2.479 -4.652,-3.319 -7.134,-1.864 l -12.039,7.052 c -2.482,1.453 -3.318,4.654 -1.863,7.134 l 5.456,9.312 c -2.703,2.763 -5.038,5.844 -6.96,9.181 L -58.128,3.851 c -2.781,-0.727 -5.635,0.945 -6.362,3.726 l -3.525,13.501 c -0.726,2.781 0.947,5.635 3.728,6.361 l 10.434,2.725 c 0.046,3.85 0.576,7.68 1.583,11.412 l -9.312,5.455 c -2.481,1.453 -3.317,4.653 -1.863,7.134 l 7.055,12.038 c 1.455,2.484 4.653,3.314 7.134,1.862 l 9.31,-5.454 c 2.763,2.702 5.845,5.038 9.181,6.958 l -2.725,10.436 c -0.726,2.781 0.946,5.636 3.727,6.362"
                   style="fill:#ffffff;fill-opacity:1;fill-rule:nonzero;stroke:none"
                   id="path236" /></g><g
                 transform="translate(392.1846,264.3428)"
                 id="g242"><path
                   d="m 0,0 c 9.686,-2.38 15.606,-12.161 13.227,-21.845 -2.379,-9.684 -12.16,-15.606 -21.845,-13.226 -9.685,2.38 -15.607,12.16 -13.227,21.844 C -19.465,-3.542 -9.685,2.38 0,0 m -36.289,-16.113 6.454,-1.587 c 0.015,-2.51 0.402,-4.967 1.12,-7.306 l -5.688,-3.444 c -1.08,-0.654 -1.426,-2.062 -0.772,-3.142 l 4.105,-6.78 c 0.654,-1.081 2.061,-1.427 3.142,-0.772 l 5.688,3.444 c 1.74,-1.72 3.738,-3.202 5.955,-4.378 l -1.586,-6.455 c -0.302,-1.228 0.449,-2.466 1.676,-2.768 l 7.697,-1.891 c 1.227,-0.302 2.466,0.448 2.768,1.675 l 1.585,6.455 c 2.51,0.014 4.968,0.402 7.306,1.121 l 3.444,-5.689 c 0.655,-1.081 2.062,-1.427 3.143,-0.772 l 6.779,4.105 c 1.081,0.654 1.427,2.061 0.773,3.142 l -3.445,5.688 c 1.721,1.739 3.203,3.738 4.379,5.955 l 6.454,-1.586 c 1.228,-0.301 2.467,0.449 2.768,1.676 l 1.892,7.696 c 0.301,1.227 -0.449,2.466 -1.676,2.768 l -6.454,1.586 c -0.015,2.51 -0.403,4.968 -1.12,7.307 l 5.687,3.443 c 1.081,0.655 1.427,2.061 0.773,3.143 L 22.453,3.3 C 21.799,4.381 20.392,4.727 19.311,4.072 L 13.622,0.628 C 11.883,2.349 9.885,3.831 7.668,5.007 l 1.586,6.454 c 0.302,1.227 -0.449,2.467 -1.676,2.768 l -7.697,1.892 c -1.227,0.301 -2.466,-0.449 -2.768,-1.676 L -4.473,7.99 C -6.982,7.976 -9.44,7.588 -11.778,6.87 l -3.445,5.689 c -0.654,1.08 -2.061,1.426 -3.142,0.772 l -6.78,-4.105 c -1.081,-0.655 -1.426,-2.061 -0.772,-3.143 l 3.444,-5.688 c -1.72,-1.739 -3.203,-3.737 -4.379,-5.955 l -6.454,1.586 c -1.227,0.302 -2.466,-0.448 -2.768,-1.675 l -1.891,-7.697 c -0.302,-1.227 0.448,-2.467 1.676,-2.767"
                   style="fill:#ffffff;fill-opacity:1;fill-rule:nonzero;stroke:none"
                   id="path240" /></g><g
                 id="g254"><g
                   id="g244" /><g
                   id="g252"><g
                     clip-path="url(#clipPath230)"
                     opacity="0.360001"
                     id="g250"><g
                       transform="translate(437.208,220.249)"
                       id="g248"><path
                         d="m 0,0 c -2.416,0 -4.794,-0.659 -6.914,-1.942 -3.062,-1.854 -5.218,-4.788 -6.071,-8.263 -0.854,-3.476 -0.304,-7.075 1.549,-10.136 1.854,-3.061 4.789,-5.218 8.263,-6.071 3.476,-0.855 7.075,-0.303 10.136,1.55 3.06,1.853 5.217,4.788 6.071,8.262 0.854,3.476 0.304,7.076 -1.55,10.136 C 9.631,-3.402 6.696,-1.246 3.222,-0.393 2.153,-0.13 1.072,0 0,0 m 0.024,-27.801 c -1.134,0 -2.286,0.135 -3.435,0.418 -3.735,0.917 -6.888,3.235 -8.88,6.524 -1.992,3.29 -2.583,7.158 -1.665,10.892 0.917,3.735 3.234,6.888 6.523,8.88 3.291,1.991 7.16,2.583 10.893,1.665 3.734,-0.917 6.888,-3.234 8.88,-6.523 1.992,-3.29 2.583,-7.159 1.665,-10.893 C 12.393,-23.397 6.495,-27.8 0.024,-27.801 m -13.725,1.05 0.277,-0.274 c 1.324,-1.31 2.827,-2.415 4.466,-3.285 l 0.344,-0.182 -1.314,-5.346 c -0.166,-0.675 0.248,-1.359 0.923,-1.525 l 5.924,-1.455 c 0.329,-0.081 0.667,-0.029 0.954,0.145 0.288,0.175 0.49,0.45 0.571,0.777 l 1.314,5.347 0.389,0.002 c 1.853,0.011 3.697,0.293 5.48,0.84 l 0.372,0.113 2.853,-4.71 c 0.359,-0.593 1.136,-0.785 1.731,-0.425 l 5.218,3.159 c 0.288,0.174 0.491,0.45 0.571,0.777 0.08,0.327 0.028,0.666 -0.146,0.954 l -2.853,4.711 0.274,0.277 c 1.309,1.324 2.415,2.827 3.285,4.466 l 0.182,0.344 5.346,-1.313 c 0.325,-0.08 0.664,-0.03 0.954,0.146 0.287,0.174 0.49,0.45 0.571,0.777 l 1.455,5.923 c 0.081,0.327 0.029,0.666 -0.146,0.954 -0.174,0.288 -0.45,0.491 -0.777,0.572 l -5.346,1.313 -0.002,0.39 c -0.012,1.856 -0.294,3.7 -0.84,5.479 l -0.115,0.372 4.712,2.853 c 0.288,0.175 0.491,0.45 0.571,0.777 0.08,0.327 0.028,0.666 -0.146,0.954 l -3.16,5.218 C 20.018,2.662 19.741,2.865 19.414,2.945 19.088,3.024 18.749,2.973 18.46,2.799 L 13.749,-0.054 13.472,0.221 C 12.149,1.529 10.647,2.634 9.007,3.505 L 8.663,3.688 9.977,9.033 c 0.165,0.675 -0.249,1.36 -0.924,1.526 L 3.129,12.014 C 2.805,12.093 2.464,12.042 2.176,11.868 1.887,11.693 1.685,11.418 1.604,11.091 L 0.29,5.744 -0.1,5.742 C -1.953,5.731 -3.796,5.449 -5.578,4.902 L -5.95,4.787 -8.803,9.499 c -0.361,0.594 -1.137,0.786 -1.731,0.426 l -5.218,-3.16 c -0.288,-0.174 -0.491,-0.451 -0.571,-0.778 -0.081,-0.327 -0.03,-0.666 0.145,-0.954 l 2.853,-4.71 -0.275,-0.277 c -1.308,-1.324 -2.413,-2.826 -3.283,-4.466 l -0.182,-0.344 -5.346,1.314 c -0.328,0.079 -0.667,0.028 -0.954,-0.147 -0.288,-0.174 -0.491,-0.45 -0.572,-0.777 l -1.456,-5.923 c -0.165,-0.676 0.249,-1.359 0.924,-1.525 l 5.347,-1.314 0.002,-0.389 c 0.011,-1.856 0.293,-3.7 0.839,-5.48 l 0.115,-0.372 -4.711,-2.852 c -0.288,-0.175 -0.491,-0.452 -0.571,-0.779 -0.081,-0.327 -0.03,-0.665 0.145,-0.953 l 3.159,-5.218 c 0.359,-0.592 1.136,-0.784 1.732,-0.425 z M -2.78,-39.854 c -0.178,0 -0.359,0.02 -0.539,0.065 l -5.924,1.455 c -1.211,0.298 -1.953,1.525 -1.655,2.734 l 1.128,4.594 c -1.478,0.821 -2.847,1.827 -4.077,2.997 l -4.048,-2.451 c -1.066,-0.644 -2.459,-0.303 -3.104,0.764 l -3.159,5.217 c -0.313,0.516 -0.405,1.124 -0.262,1.71 0.145,0.586 0.509,1.082 1.025,1.395 l 4.047,2.45 c -0.466,1.632 -0.723,3.311 -0.766,5.002 l -4.593,1.129 c -0.587,0.144 -1.082,0.507 -1.395,1.024 -0.312,0.516 -0.405,1.123 -0.261,1.71 l 1.456,5.923 c 0.143,0.586 0.507,1.082 1.024,1.395 0.516,0.312 1.124,0.404 1.71,0.262 l 4.594,-1.129 c 0.821,1.479 1.828,2.847 2.996,4.077 l -2.45,4.047 c -0.313,0.516 -0.405,1.124 -0.262,1.711 0.145,0.585 0.509,1.081 1.025,1.393 l 5.218,3.16 c 1.064,0.646 2.459,0.303 3.105,-0.763 l 2.45,-4.048 c 1.633,0.468 3.311,0.724 5.001,0.767 l 1.129,4.593 c 0.144,0.587 0.508,1.082 1.024,1.395 0.519,0.311 1.129,0.405 1.71,0.26 l 5.924,-1.455 c 1.21,-0.298 1.953,-1.524 1.656,-2.734 L 9.818,4.201 c 1.481,-0.822 2.849,-1.828 4.077,-2.997 l 4.047,2.45 c 0.517,0.314 1.128,0.407 1.71,0.262 0.587,-0.144 1.082,-0.508 1.395,-1.024 l 3.159,-5.218 c 0.313,-0.517 0.406,-1.124 0.262,-1.71 -0.144,-0.586 -0.508,-1.082 -1.025,-1.395 l -4.047,-2.45 c 0.466,-1.631 0.723,-3.309 0.767,-5.002 l 4.592,-1.129 c 0.586,-0.143 1.082,-0.507 1.394,-1.023 0.314,-0.518 0.407,-1.125 0.262,-1.711 l -1.455,-5.923 c -0.144,-0.587 -0.508,-1.082 -1.024,-1.394 -0.517,-0.314 -1.126,-0.408 -1.71,-0.262 l -4.594,1.129 c -0.822,-1.48 -1.828,-2.848 -2.997,-4.077 l 2.45,-4.048 c 0.313,-0.516 0.406,-1.123 0.262,-1.71 -0.144,-0.586 -0.508,-1.082 -1.025,-1.395 l -5.217,-3.159 c -1.068,-0.644 -2.459,-0.303 -3.105,0.764 l -2.45,4.047 c -1.634,-0.467 -3.313,-0.724 -5.002,-0.767 l -1.129,-4.593 c -0.253,-1.03 -1.179,-1.72 -2.195,-1.72"
                         style="fill:#4e69ff;fill-opacity:1;fill-rule:nonzero;stroke:none"
                         id="path246" /></g></g></g></g></g></g></g><g
           id="g260"
           transform="translate(309.4258,129.3242)"><path
             d="m 0,0 -108.011,-46.558 c -9.013,-3.885 -19.47,0.272 -23.355,9.286 l -99.257,230.264 c -3.885,9.013 0.272,19.47 9.286,23.355 l 108.01,46.559 c 9.014,3.885 19.47,-0.272 23.356,-9.285 L 9.285,23.355 C 13.171,14.342 9.014,3.886 0,0"
             style="fill:#292930;fill-opacity:1;fill-rule:nonzero;stroke:none"
             id="path262" /></g><g
           id="g264"
           transform="translate(296.001,137.6123)"><path
             d="m 0,0 -91.987,-39.651 c -9.014,-3.885 -19.471,0.272 -23.356,9.285 l -90.722,210.467 c -3.885,9.013 0.272,19.47 9.285,23.355 l 91.988,39.651 c 9.013,3.886 19.469,-0.272 23.354,-9.285 L 9.285,23.355 C 13.17,14.342 9.013,3.886 0,0"
             style="fill:#ffffff;fill-opacity:1;fill-rule:nonzero;stroke:none"
             id="path266" /></g><g
           id="g268"
           transform="translate(293.4209,143.5977)"><path
             d="m 0,0 -91.987,-39.651 c -9.014,-3.885 -19.296,-0.132 -22.967,8.382 l -85.701,198.819 c -3.671,8.515 0.661,18.567 9.675,22.452 l 91.987,39.652 c 9.013,3.885 19.295,0.132 22.966,-8.383 L 9.675,22.452 C 13.345,13.938 9.013,3.886 0,0"
             style="fill:#9fbfff;fill-opacity:1;fill-rule:nonzero;stroke:none"
             id="path270" /></g><g
           id="g272"
           transform="translate(179.3574,360.6172)"><path
             d="m 0,0 -54.615,-23.542 c -3.491,-1.505 -7.542,0.105 -9.047,3.597 l -3.107,6.813 L 0.466,16.265 3.597,9.047 C 5.102,5.556 3.492,1.505 0,0"
             style="fill:#292930;fill-opacity:1;fill-rule:nonzero;stroke:none"
             id="path274" /></g><g
           id="g276"
           transform="translate(130.3906,350.5454)"><path
             d="m 0,0 c -0.339,0 -0.683,-0.067 -1.014,-0.209 -1.3,-0.562 -1.903,-2.077 -1.342,-3.378 0.562,-1.302 2.075,-1.902 3.377,-1.343 1.301,0.561 1.903,2.076 1.343,3.378 C 1.945,-0.582 0.996,0 0,0 m 0.009,-6.139 c -1.383,0 -2.702,0.808 -3.283,2.156 -0.78,1.808 0.057,3.912 1.864,4.691 C 0.399,1.487 2.503,0.651 3.282,-1.157 4.061,-2.964 3.224,-5.068 1.417,-5.848 0.958,-6.045 0.479,-6.139 0.009,-6.139"
             style="fill:#ffffff;fill-opacity:1;fill-rule:nonzero;stroke:none"
             id="path278" /></g><g
           id="g280"
           transform="translate(167.2681,365.8462)"><path
             d="m 0,0 c -0.24,0 -0.479,-0.049 -0.706,-0.146 l -26.146,-11.271 c -0.91,-0.392 -1.331,-1.452 -0.939,-2.362 0.393,-0.911 1.452,-1.333 2.363,-0.94 l 26.145,11.27 c 0.91,0.393 1.332,1.453 0.94,2.364 -0.19,0.438 -0.54,0.777 -0.989,0.956 C 0.452,-0.043 0.226,0 0,0 m -26.136,-15.865 c -1.084,0 -2.117,0.633 -2.573,1.69 -0.295,0.684 -0.305,1.444 -0.028,2.14 0.277,0.696 0.806,1.242 1.49,1.536 L -1.102,0.771 C -0.418,1.066 0.343,1.076 1.038,0.8 1.734,0.523 2.28,-0.006 2.575,-0.689 3.185,-2.106 2.529,-3.756 1.113,-4.367 l -26.146,-11.27 c -0.359,-0.155 -0.734,-0.228 -1.103,-0.228"
             style="fill:#ffffff;fill-opacity:1;fill-rule:nonzero;stroke:none"
             id="path282" /></g><g
           id="g284"><g
             id="g286" /><g
             id="g298"><g
               clip-path="url(#clipPath290)"
               opacity="0.179993"
               id="g296"><g
                 transform="translate(219.8521,359.1655)"
                 id="g294"><path
                   d="m 0,0 -99.213,-112.679 11.924,-27.663 96.44,119.113 z"
                   style="fill:#ffffff;fill-opacity:1;fill-rule:nonzero;stroke:none"
                   id="path292" /></g></g></g></g><g
           id="g300"><g
             id="g302" /><g
             id="g314"><g
               clip-path="url(#clipPath306)"
               opacity="0.100006"
               id="g312"><g
                 transform="translate(235.8501,321.5557)"
                 id="g310"><path
                   d="m 0,0 -91.275,-131.096 11.924,-27.663 88.887,136.635 z"
                   style="fill:#ffffff;fill-opacity:1;fill-rule:nonzero;stroke:none"
                   id="path308" /></g></g></g></g><g
           id="g316"
           transform="translate(308.7441,380.3208)"><path
             d="M 0,0 C -7.469,-24.029 -32.774,-37.525 -56.523,-30.144 -80.271,-22.762 -93.469,2.701 -86,26.73 -78.531,50.76 -53.225,64.256 -29.477,56.875 -5.729,49.493 7.469,24.029 0,0"
             style="fill:#2f56f7;fill-opacity:1;fill-rule:nonzero;stroke:none"
             id="path318" /></g><g
           id="g320"
           transform="translate(306.3789,385.7817)"><path
             d="M 0,0 C -7.469,-24.029 -32.775,-37.525 -56.523,-30.144 -80.272,-22.762 -93.469,2.701 -86,26.73 -78.532,50.76 -53.226,64.256 -29.477,56.875 -5.729,49.493 7.469,24.029 0,0"
             style="fill:#4e69ff;fill-opacity:1;fill-rule:nonzero;stroke:none"
             id="path322" /></g><g
           id="g324"><g
             id="g326" /><g
             id="g338"><g
               clip-path="url(#clipPath330)"
               opacity="0.929993"
               id="g336"><g
                 transform="translate(296.4316,388.8735)"
                 id="g334"><path
                   d="m 0,0 c -5.741,-18.47 -25.193,-28.844 -43.448,-23.17 -18.254,5.674 -28.398,25.247 -22.657,43.717 5.741,18.47 25.193,28.844 43.447,23.17 C -4.403,38.043 5.74,18.471 0,0"
                   style="fill:#ffffff;fill-opacity:1;fill-rule:nonzero;stroke:none"
                   id="path332" /></g></g></g></g><g
           id="g340"
           transform="translate(264.126,401.5508)"><path
             d="m 0,0 v 0 c -0.886,0.275 -1.38,1.216 -1.104,2.101 l 6.06,19.502 c 0.275,0.885 1.217,1.379 2.102,1.105 0.885,-0.276 1.38,-1.216 1.104,-2.102 L 2.102,1.104 C 1.826,0.219 0.885,-0.275 0,0"
             style="fill:#9fbfff;fill-opacity:1;fill-rule:nonzero;stroke:none"
             id="path342" /></g><g
           id="g344"
           transform="translate(263.2998,398.5674)"><path
             d="m 0,0 v 0 c 0.275,0.885 1.217,1.38 2.102,1.105 l 15.032,-4.672 c 0.885,-0.275 1.38,-1.216 1.104,-2.101 -0.275,-0.886 -1.216,-1.38 -2.101,-1.105 L 1.105,-2.101 C 0.22,-1.826 -0.274,-0.885 0,0"
             style="fill:#9fbfff;fill-opacity:1;fill-rule:nonzero;stroke:none"
             id="path346" /></g><g
           id="g348"
           transform="translate(268.1875,397.6523)"><path
             d="m 0,0 c -0.835,-2.688 -3.665,-4.197 -6.321,-3.371 -2.657,0.825 -4.132,3.673 -3.297,6.36 0.836,2.688 3.666,4.197 6.322,3.372 C -0.641,5.535 0.836,2.688 0,0"
             style="fill:#1b1b25;fill-opacity:1;fill-rule:nonzero;stroke:none"
             id="path350" /></g><g
           id="g352"
           transform="translate(325.6182,164.1465)"><path
             d="m 0,0 -84.779,29.397 c -7.823,2.713 -11.966,11.253 -9.253,19.077 l 70.541,203.43 c 2.713,7.823 11.253,11.966 19.076,9.253 l 84.779,-29.398 c 7.824,-2.713 11.966,-11.253 9.253,-19.075 L 19.076,9.252 C 16.363,1.43 7.823,-2.713 0,0"
             style="fill:#101011;fill-opacity:1;fill-rule:nonzero;stroke:none"
             id="path354" /></g><g
           id="g356"
           transform="translate(324.208,168.1172)"><path
             d="m 0,0 -79.803,27.672 c -7.364,2.554 -11.185,10.815 -8.536,18.454 l 68.88,198.644 c 2.649,7.638 10.766,11.761 18.129,9.208 l 79.803,-27.673 c 7.363,-2.553 11.185,-10.815 8.536,-18.454 L 18.128,9.208 C 15.479,1.569 7.363,-2.553 0,0"
             style="fill:#282830;fill-opacity:1;fill-rule:nonzero;stroke:none"
             id="path358" /></g><g
           id="g360"
           transform="translate(342.5215,188.4102)"><path
             d="m 0,0 -99.765,34.594 61.216,176.539 99.766,-34.594 z"
             style="fill:#ffffff;fill-opacity:1;fill-rule:nonzero;stroke:none"
             id="path362" /></g><g
           id="g364"><g
             id="g366" /><g
             id="g378"><g
               clip-path="url(#clipPath370)"
               opacity="0.889999"
               id="g376"><g
                 transform="translate(360.3174,401.9658)"
                 id="g374"><path
                   d="m 0,0 c -0.119,0 -0.238,-0.027 -0.35,-0.081 -0.193,-0.094 -0.337,-0.257 -0.408,-0.46 -0.07,-0.203 -0.057,-0.42 0.036,-0.614 0.093,-0.193 0.257,-0.338 0.46,-0.408 0.201,-0.07 0.419,-0.059 0.614,0.036 0.193,0.094 0.337,0.257 0.408,0.46 v 0 C 0.83,-0.864 0.817,-0.646 0.724,-0.453 0.631,-0.26 0.467,-0.115 0.264,-0.045 0.178,-0.015 0.089,0 0,0 m 0.002,-2.608 c -0.198,0 -0.398,0.033 -0.592,0.1 -0.455,0.158 -0.821,0.483 -1.032,0.917 -0.21,0.433 -0.239,0.923 -0.081,1.378 0.157,0.455 0.483,0.821 0.917,1.032 C -0.354,1.028 0.136,1.059 0.592,0.9 1.047,0.742 1.413,0.417 1.624,-0.017 1.834,-0.45 1.863,-0.94 1.705,-1.395 1.547,-1.85 1.222,-2.216 0.788,-2.427 0.539,-2.547 0.271,-2.608 0.002,-2.608"
                   style="fill:#ffffff;fill-opacity:1;fill-rule:nonzero;stroke:none"
                   id="path372" /></g></g></g></g><g
           id="g380"><g
             id="g382" /><g
             id="g394"><g
               clip-path="url(#clipPath386)"
               opacity="0.889999"
               id="g392"><g
                 transform="translate(367.5039,391.3804)"
                 id="g390"><path
                   d="M 0,0 C 0.193,-0.065 0.404,0.036 0.472,0.229 0.503,0.321 0.497,0.421 0.454,0.51 0.411,0.599 0.336,0.665 0.242,0.697 l -18.886,6.549 c -0.094,0.033 -0.194,0.027 -0.281,-0.017 -0.089,-0.042 -0.155,-0.117 -0.187,-0.21 -0.068,-0.193 0.035,-0.404 0.227,-0.471 L 0.001,0 Z m 0.119,-1.021 c -0.147,0 -0.298,0.025 -0.445,0.076 h -0.001 l -18.886,6.549 c -0.713,0.247 -1.092,1.029 -0.845,1.742 0.121,0.346 0.368,0.624 0.698,0.783 0.328,0.16 0.701,0.182 1.045,0.061 L 0.57,1.642 C 0.916,1.522 1.194,1.275 1.354,0.946 1.514,0.618 1.535,0.246 1.416,-0.1 1.219,-0.665 0.687,-1.021 0.119,-1.021"
                   style="fill:#ffffff;fill-opacity:1;fill-rule:nonzero;stroke:none"
                   id="path388" /></g></g></g></g><g
           id="g396"><g
             id="g398" /><g
             id="g422"><g
               clip-path="url(#clipPath402)"
               opacity="0.410004"
               id="g420"><g
                 id="g418"><g
                   id="g408" /><g
                   id="g416"><g
                     clip-path="url(#clipPath406)"
                     opacity="0.809998"
                     id="g414"><g
                       transform="translate(340.4707,196.6172)"
                       id="g412"><path
                         d="m 0,0 -89.216,30.936 57.232,165.049 89.215,-30.936 z"
                         style="fill:#9fbfff;fill-opacity:1;fill-rule:nonzero;stroke:none"
                         id="path410" /></g></g></g></g></g></g></g><g
           id="g424"
           transform="translate(275.0596,196.9434)"><path
             d="m 0,0 c -0.559,-1.608 0.297,-3.371 1.906,-3.929 l 19.953,-6.919 c 1.611,-0.56 3.373,0.297 3.93,1.907 l 0.12,0.347 c 0.559,1.61 -0.297,3.372 -1.905,3.93 L 4.05,2.255 C 3.272,2.525 2.434,2.478 1.69,2.116 0.949,1.756 0.392,1.129 0.121,0.349 Z m 22.875,-12.021 c -0.451,0 -0.904,0.076 -1.344,0.228 L 1.578,-4.874 c -2.13,0.739 -3.262,3.072 -2.523,5.202 l 0.121,0.349 C -0.466,1.709 0.271,2.539 1.255,3.016 2.236,3.494 3.344,3.559 4.378,3.2 l 19.954,-6.919 c 2.129,-0.739 3.261,-3.072 2.522,-5.202 l -0.12,-0.348 c -0.358,-1.033 -1.096,-1.863 -2.079,-2.339 -0.564,-0.275 -1.171,-0.413 -1.78,-0.413"
             style="fill:#ffffff;fill-opacity:1;fill-rule:nonzero;stroke:none"
             id="path426" /></g><g
           id="g428"><g
             id="g430" /><g
             id="g442"><g
               clip-path="url(#clipPath434)"
               opacity="0.179993"
               id="g440"><g
                 transform="translate(298.2988,383.1802)"
                 id="g438"><path
                   d="M 0,0 85.539,-75.619 75.428,-104.781 -7.465,-20.047 Z"
                   style="fill:#ffffff;fill-opacity:1;fill-rule:nonzero;stroke:none"
                   id="path436" /></g></g></g></g><g
           id="g444"><g
             id="g446" /><g
             id="g458"><g
               clip-path="url(#clipPath450)"
               opacity="0.179993"
               id="g456"><g
                 transform="translate(285.4404,346.3672)"
                 id="g454"><path
                   d="M 0,0 85.54,-75.619 75.428,-104.781 -2.6,-6.982 Z"
                   style="fill:#ffffff;fill-opacity:1;fill-rule:nonzero;stroke:none"
                   id="path452" /></g></g></g></g><g
           id="g460"
           transform="translate(148.0562,386.2734)"><path
             d="m 0,0 -25.976,-2.443 c -5.52,-0.52 -10.463,3.588 -10.984,9.128 l -2.229,23.699 c -0.521,5.54 3.568,10.498 9.088,11.017 l 25.976,2.444 C 1.396,44.364 6.338,40.256 6.859,34.716 L 9.089,11.017 C 9.61,5.477 5.52,0.52 0,0"
             style="fill:#2f56f7;fill-opacity:1;fill-rule:nonzero;stroke:none"
             id="path462" /></g><g
           id="g464"
           transform="translate(148.4995,389.8794)"><path
             d="m 0,0 -23.969,-2.255 c -5.093,-0.479 -9.653,3.297 -10.132,8.39 l -2.05,21.79 c -0.479,5.093 3.296,9.653 8.39,10.132 l 23.969,2.255 C 1.301,40.791 5.86,37.015 6.34,31.922 L 8.39,10.132 C 8.869,5.039 5.093,0.479 0,0"
             style="fill:#4e69ff;fill-opacity:1;fill-rule:nonzero;stroke:none"
             id="path466" /></g><g
           id="g468"
           transform="translate(134.2061,418.9561)"><path
             d="m 0,0 c -0.246,0 -0.493,-0.014 -0.741,-0.042 -3.479,-0.402 -5.982,-3.559 -5.581,-7.038 0.247,-2.134 1.545,-3.985 3.474,-4.95 l 0.822,-0.412 -0.792,-0.466 c -2.847,-1.678 -4.497,-4.812 -4.292,-8.077 2.484,0.187 14.894,1.618 17.342,2.001 -0.544,3.227 -2.865,5.902 -6.019,6.888 l -0.878,0.274 0.707,0.587 c 1.658,1.379 2.5,3.477 2.254,5.612 C 6.102,-3.938 5.263,-2.429 3.934,-1.375 2.8,-0.477 1.425,0 0,0 m -7.585,-21.973 c -0.094,0 -0.154,0.004 -0.176,0.014 l -0.265,0.114 -0.037,0.29 c -0.409,3.54 1.159,7.006 4.033,9.052 -1.824,1.188 -3.032,3.119 -3.285,5.309 -0.465,4.027 2.433,7.68 6.46,8.145 1.95,0.225 3.872,-0.323 5.41,-1.543 1.538,-1.22 2.509,-2.966 2.735,-4.917 0.252,-2.189 -0.484,-4.345 -1.989,-5.917 3.264,-1.337 5.58,-4.354 5.989,-7.895 l 0.033,-0.286 -0.234,-0.176 c -0.391,-0.291 -16.743,-2.19 -18.674,-2.19"
             style="fill:#ffffff;fill-opacity:1;fill-rule:nonzero;stroke:none"
             id="path470" /></g><g
           id="g472"
           transform="translate(314.6748,121.4746)"><path
             d="m 0,0 -57.23,18.031 c -1.323,0.416 -2.732,-0.317 -3.149,-1.639 l -1.937,-6.151 -0.949,-3.01 -9.327,-29.604 -0.81,-2.57 -0.123,-0.391 c -0.416,-1.322 0.317,-2.732 1.64,-3.148 l 57.23,-18.033 c 1.322,-0.416 2.732,0.319 3.148,1.641 l 0.155,0.492 0.727,2.307 10.097,32.044 0.944,2.999 1.224,3.884 C 2.057,-1.826 1.322,-0.417 0,0"
             style="fill:#ffffff;fill-opacity:1;fill-rule:nonzero;stroke:none"
             id="path474" /></g><g
           id="g476"
           transform="translate(272.6084,111.8574)"><path
             d="M 0,0 5.238,-5.271 C 5.551,-5.585 5.996,-5.72 6.431,-5.628 l 33.031,7.621 2.485,0.574 c 0.182,0.042 0.363,0.045 0.535,0.018 l 1.224,3.884 c 0.417,1.322 -0.317,2.731 -1.64,3.148 l -57.23,18.031 c -1.322,0.416 -2.732,-0.317 -3.148,-1.639 l -1.938,-6.151 1.271,-1.245 z"
             style="fill:#4e69ff;fill-opacity:1;fill-rule:nonzero;stroke:none"
             id="path478" /></g><g
           id="g480"
           transform="translate(251.4102,128.7061)"><path
             d="m 0,0 -9.328,-29.604 27.95,11.342 z"
             style="fill:#4e69ff;fill-opacity:1;fill-rule:nonzero;stroke:none"
             id="path482" /></g><g
           id="g484"
           transform="translate(304.0498,79.3994)"><path
             d="m 0,0 10.097,32.044 -26.59,-6.136 z"
             style="fill:#4e69ff;fill-opacity:1;fill-rule:nonzero;stroke:none"
             id="path486" /></g><g
           id="g488"
           transform="translate(301.7998,77.6953)"><path
             d="m 0,0 -17.151,26.941 -5.004,-1.154 c -0.723,-0.152 -1.449,-0.113 -2.117,0.098 -0.625,0.196 -1.201,0.543 -1.677,1.022 l -3.69,3.714 c -0.087,-0.061 -0.179,-0.117 -0.283,-0.159 L -59.11,18.616 c -0.316,-0.128 -0.65,-0.134 -0.951,-0.039 -0.17,0.054 -0.327,0.145 -0.466,0.259 l -0.123,-0.391 c -0.416,-1.322 0.317,-2.732 1.64,-3.148 L -1.78,-2.735 c 1.322,-0.416 2.732,0.318 3.148,1.64 l 0.155,0.492 C 1.27,-0.665 1.007,-0.663 0.763,-0.586 0.459,-0.49 0.185,-0.291 0,0"
             style="fill:#4e69ff;fill-opacity:1;fill-rule:nonzero;stroke:none"
             id="path490" /></g><g
           id="g492"
           transform="translate(277.7783,280.1504)"><path
             d="m 0,0 -22.108,-9.53 c -4.699,-2.025 -10.2,0.162 -12.225,4.86 l -8.663,20.099 c -2.025,4.697 0.162,10.198 4.86,12.223 l 22.108,9.531 c 4.698,2.025 10.199,-0.162 12.224,-4.86 L 4.859,12.224 C 6.885,7.526 4.697,2.025 0,0"
             style="fill:#2f56f7;fill-opacity:1;fill-rule:nonzero;stroke:none"
             id="path494" /></g><g
           id="g496"
           transform="translate(276.8164,282.6733)"><path
             d="m 0,0 -22.108,-9.53 c -4.699,-2.025 -10.2,0.162 -12.225,4.86 l -8.663,20.099 c -2.025,4.697 0.162,10.198 4.86,12.223 l 22.108,9.531 c 4.698,2.025 10.199,-0.162 12.224,-4.86 L 4.859,12.224 C 6.885,7.526 4.698,2.025 0,0"
             style="fill:#4e69ff;fill-opacity:1;fill-rule:nonzero;stroke:none"
             id="path498" /></g><g
           id="g500"
           transform="translate(257.7471,303.8008)"><path
             d="m 0,0 c -0.98,0 -1.96,-0.201 -2.887,-0.6 -3.695,-1.593 -5.405,-5.895 -3.813,-9.59 1.594,-3.695 5.896,-5.404 9.59,-3.812 1.79,0.772 3.172,2.194 3.892,4.005 0.72,1.811 0.692,3.794 -0.08,5.584 -0.771,1.79 -2.193,3.172 -4.005,3.892 C 1.824,-0.173 0.911,0 0,0 m 0.014,-15.598 c -3.215,0 -6.281,1.878 -7.632,5.013 -1.811,4.201 0.134,9.092 4.335,10.903 2.034,0.876 4.29,0.91 6.349,0.091 2.06,-0.819 3.677,-2.391 4.554,-4.426 0.878,-2.035 0.91,-4.29 0.091,-6.349 -0.818,-2.06 -2.39,-3.677 -4.425,-4.554 -1.067,-0.46 -2.179,-0.678 -3.272,-0.678"
             style="fill:#ffffff;fill-opacity:1;fill-rule:nonzero;stroke:none"
             id="path502" /></g><g
           id="g504"
           transform="translate(406.8145,281.7773)"><path
             d="m 0,0 -34.343,3.019 c -7.298,0.641 -12.743,7.137 -12.102,14.435 l 2.745,31.22 c 0.641,7.298 7.137,12.744 14.434,12.103 L 5.077,57.758 C 12.375,57.116 17.821,50.621 17.18,43.323 L 14.436,12.102 C 13.794,4.804 7.298,-0.642 0,0"
             style="fill:#2f56f7;fill-opacity:1;fill-rule:nonzero;stroke:none"
             id="path506" /></g><g
           id="g508"
           transform="translate(410.9297,285.2817)"><path
             d="m 0,0 -34.343,3.019 c -7.298,0.641 -12.744,7.137 -12.102,14.435 l 2.744,31.22 c 0.641,7.298 7.138,12.744 14.435,12.103 L 5.077,57.758 C 12.375,57.116 17.82,50.621 17.18,43.323 L 14.435,12.102 C 13.793,4.804 7.298,-0.642 0,0"
             style="fill:#4e69ff;fill-opacity:1;fill-rule:nonzero;stroke:none"
             id="path510" /></g><g
           id="g512"
           transform="translate(389.8574,305.1421)"><path
             d="m 0,0 c 0.513,-2.469 2.593,-4.365 5.15,-4.606 2.564,-0.235 4.955,1.233 5.921,3.562 z m 5.697,-5.631 c -0.213,0 -0.426,0.009 -0.64,0.03 -3.24,0.305 -5.824,2.875 -6.145,6.11 l -0.06,0.604 13.555,-1.279 -0.172,-0.582 C 11.376,-3.659 8.687,-5.631 5.697,-5.631"
             style="fill:#ffffff;fill-opacity:1;fill-rule:nonzero;stroke:none"
             id="path514" /></g><g
           id="g516"
           transform="translate(397.1611,333.5229)"><path
             d="m 0,0 c -5.127,0 -9.522,-3.915 -10.013,-9.121 l -0.659,-6.986 -0.418,-0.034 c -2.644,-0.213 -4.744,-2.283 -4.992,-4.924 -0.282,-2.997 1.926,-5.665 4.923,-5.948 L 7.81,-28.802 c 1.459,-0.136 2.871,0.301 3.994,1.23 1.124,0.93 1.817,2.242 1.954,3.694 0.249,2.641 -1.427,5.067 -3.985,5.77 l -0.404,0.111 0.659,6.987 C 10.549,-5.485 6.477,-0.566 0.952,-0.044 0.633,-0.015 0.314,0 0,0 m 8.334,-29.826 c -0.205,0 -0.411,0.01 -0.618,0.029 l -18.969,1.789 c -3.546,0.334 -6.159,3.491 -5.825,7.037 0.281,2.983 2.559,5.352 5.488,5.78 l 0.581,6.164 c 0.573,6.074 5.964,10.559 12.055,9.978 6.074,-0.573 10.55,-5.981 9.978,-12.055 l -0.582,-6.165 c 2.797,-0.966 4.593,-3.719 4.312,-6.703 -0.162,-1.718 -0.983,-3.27 -2.313,-4.37 -1.169,-0.968 -2.608,-1.484 -4.107,-1.484"
             style="fill:#ffffff;fill-opacity:1;fill-rule:nonzero;stroke:none"
             id="path518" /></g><g
           id="g520"
           transform="translate(206.3965,181.1406)"><path
             d="m 0,0 -122.672,-53.856 c -5.595,-2.457 -12.122,0.088 -14.578,5.683 L -158.558,0.36 c -2.456,5.595 0.088,12.121 5.683,14.578 l 122.673,53.856 c 5.595,2.456 12.121,-0.087 14.577,-5.683 L 5.683,14.578 C 8.139,8.983 5.595,2.456 0,0"
             style="fill:#2f56f7;fill-opacity:1;fill-rule:nonzero;stroke:none"
             id="path522" /></g><g
           id="g524"
           transform="translate(206.5967,189.2744)"><path
             d="m 0,0 -124.753,-54.771 c -3.85,-1.689 -8.339,0.061 -10.029,3.91 l -21.122,48.111 c -1.69,3.849 0.061,8.339 3.909,10.028 l 124.754,54.77 c 3.849,1.69 8.339,-0.06 10.028,-3.909 L 3.909,10.028 C 5.599,6.179 3.849,1.689 0,0"
             style="fill:#4e69ff;fill-opacity:1;fill-rule:nonzero;stroke:none"
             id="path526" /></g><g
           id="g528"><g
             id="g530" /><g
             id="g542"><g
               clip-path="url(#clipPath534)"
               opacity="0.440002"
               id="g540"><g
                 transform="translate(120.5205,167.2588)"
                 id="g538"><path
                   d="M 0,0 -36.824,-16.166 -52.99,20.657 -16.167,36.824 Z"
                   style="fill:#ffffff;fill-opacity:1;fill-rule:nonzero;stroke:none"
                   id="path536" /></g></g></g></g><g
           id="g544"
           transform="translate(120.4824,200.6787)"><path
             d="m 0,0 c -0.385,0 -0.751,0.223 -0.916,0.598 -0.222,0.506 0.008,1.095 0.514,1.318 l 54.94,24.12 c 0.506,0.219 1.096,-0.008 1.317,-0.514 0.223,-0.505 -0.007,-1.095 -0.513,-1.318 L 0.401,0.084 C 0.271,0.027 0.134,0 0,0"
             style="fill:#ffffff;fill-opacity:1;fill-rule:nonzero;stroke:none"
             id="path546" /></g><g
           id="g548"
           transform="translate(132.7261,172.79)"><path
             d="m 0,0 c -0.385,0 -0.751,0.223 -0.916,0.598 -0.222,0.506 0.008,1.095 0.514,1.318 l 54.94,24.12 c 0.506,0.219 1.096,-0.008 1.317,-0.514 0.223,-0.505 -0.007,-1.095 -0.513,-1.318 L 0.401,0.084 C 0.271,0.027 0.134,0 0,0"
             style="fill:#ffffff;fill-opacity:1;fill-rule:nonzero;stroke:none"
             id="path550" /></g><g
           id="g552"
           transform="translate(126.604,186.7344)"><path
             d="m 0,0 c -0.385,0 -0.751,0.223 -0.916,0.598 -0.222,0.506 0.008,1.095 0.514,1.318 l 29.004,12.733 c 0.506,0.218 1.096,-0.007 1.317,-0.513 0.223,-0.506 -0.007,-1.096 -0.513,-1.319 L 0.401,0.084 C 0.271,0.027 0.134,0 0,0"
             style="fill:#ffffff;fill-opacity:1;fill-rule:nonzero;stroke:none"
             id="path554" /></g><g
           id="g556"
           transform="translate(162.3013,202.4062)"><path
             d="m 0,0 c -0.385,0 -0.751,0.223 -0.916,0.598 -0.222,0.506 0.008,1.095 0.514,1.318 l 19.243,8.448 c 0.507,0.219 1.095,-0.008 1.317,-0.513 C 20.38,9.345 20.15,8.755 19.645,8.532 L 0.401,0.084 C 0.271,0.027 0.134,0 0,0"
             style="fill:#ffffff;fill-opacity:1;fill-rule:nonzero;stroke:none"
             id="path558" /></g><g
           id="g560"
           transform="translate(417.1455,163.1621)"><path
             d="m 0,0 c 0.435,-10.408 -11.061,-33.09 -16.788,-42.397 -1.138,-1.85 -5.109,-3.94 -8.181,-0.042 -6.764,8.584 -21.907,30.055 -22.342,40.463 -0.544,13.065 9.604,24.098 22.668,24.643 C -11.578,23.213 -0.546,13.064 0,0"
             style="fill:#2f56f7;fill-opacity:1;fill-rule:nonzero;stroke:none"
             id="path562" /></g><g
           id="g564"
           transform="translate(419.6904,164.4307)"><path
             d="m 0,0 c 0.435,-10.408 -13.605,-34.358 -19.333,-43.666 -1.138,-1.85 -3.782,-1.96 -5.071,-0.212 -6.483,8.798 -22.471,31.494 -22.906,41.902 -0.545,13.065 9.603,24.097 22.667,24.643 C -11.578,23.213 -0.545,13.064 0,0"
             style="fill:#4e69ff;fill-opacity:1;fill-rule:nonzero;stroke:none"
             id="path566" /></g><g
           id="g568"
           transform="translate(410.0488,164.4297)"><path
             d="m 0,0 c 0.323,-7.749 -5.695,-14.292 -13.444,-14.615 -7.748,-0.324 -14.292,5.695 -14.616,13.443 -0.323,7.748 5.696,14.292 13.444,14.615 C -6.867,13.768 -0.324,7.748 0,0"
             style="fill:#ffffff;fill-opacity:1;fill-rule:nonzero;stroke:none"
             id="path570" /></g></g></g></g><rect
     y="0"
     x="0"
     height="666.66077"
     width="666.66101"
     id="rect290"
     style="opacity:0.5;fill:#004e69;fill-opacity:1;fill-rule:evenodd;stroke-width:1.05337" /></svg>
