<?xml version="1.0" encoding="UTF-8" standalone="no"?>
<svg
   xmlns:dc="http://purl.org/dc/elements/1.1/"
   xmlns:cc="http://creativecommons.org/ns#"
   xmlns:rdf="http://www.w3.org/1999/02/22-rdf-syntax-ns#"
   xmlns:svg="http://www.w3.org/2000/svg"
   xmlns="http://www.w3.org/2000/svg"
   viewBox="0 0 1920 934.99998"
   height="935"
   width="1920"
   xml:space="preserve"
   id="svg2"
   version="1.1"><metadata
     id="metadata8"><rdf:RDF><cc:Work
         rdf:about=""><dc:format>image/svg+xml</dc:format><dc:type
           rdf:resource="http://purl.org/dc/dcmitype/StillImage" /><dc:title></dc:title></cc:Work></rdf:RDF></metadata><defs
     id="defs6"><clipPath
       id="clipPath20"
       clipPathUnits="userSpaceOnUse"><path
         id="path18"
         d="M 0,500 H 500 V 0 H 0 Z" /></clipPath><clipPath
       id="clipPath28"
       clipPathUnits="userSpaceOnUse"><path
         id="path26"
         d="M 123.135,386.905 H 500 V -0.00102234 H 123.135 Z" /></clipPath><clipPath
       id="clipPath110"
       clipPathUnits="userSpaceOnUse"><path
         id="path108"
         d="M 0,500 H 500 V 0 H 0 Z" /></clipPath></defs><g
     transform="matrix(1.3333333,0,0,-1.3333333,0,666.66667)"
     id="g10"><path
       id="path12"
       style="fill:#ff8e3d;fill-opacity:1;fill-rule:nonzero;stroke:none;stroke-width:2.00977"
       d="M 0,-201.25 H 1440 V 500.00002 H 0 Z" /><g
       transform="matrix(1.2208669,0,0,1.2208669,514.04465,-201.42514)"
       id="g14"><g
         clip-path="url(#clipPath20)"
         id="g16"><g
           id="g22"><g
             id="g24" /><g
             id="g36"><g
               id="g34"
               opacity="0.25"
               clip-path="url(#clipPath28)"><g
                 id="g32"
                 transform="translate(123.1354,157.9916)"><path
                   id="path30"
                   style="fill:#474545;fill-opacity:1;fill-rule:nonzero;stroke:none"
                   d="m 0,0 157.754,-157.993 219.111,0.001 V 125.177 L 273.558,228.599 c 0,0 26.697,-27.263 24.787,-63.672 l -47.288,47.32 c 0,0 22.731,-25.33 16.392,-55.438 l -38.817,38.824 1.751,-3.06 -28.19,28.192 -1.361,-48.79 -24.06,24.061 -2.957,-2.956 -19.484,19.484 -2.985,-3.284 -19.633,19.633 c 0,0 -31.166,-34.747 -26.843,-61.272 4.323,-26.526 2.777,-31.516 21.808,-61.402 l 70.209,-70.334 z" /></g></g></g></g><g
           transform="translate(394.1672,384.1893)"
           id="g38"><path
             id="path40"
             style="fill:none;stroke:#474545;stroke-width:7;stroke-linecap:round;stroke-linejoin:miter;stroke-miterlimit:10;stroke-dasharray:none;stroke-opacity:1"
             d="m 0,0 c 14.911,-15.028 24.128,-35.714 24.128,-58.557 0,-22.84 -9.215,-43.524 -24.123,-58.551" /></g><g
           transform="translate(252.3911,266.8083)"
           id="g42"><path
             id="path44"
             style="fill:none;stroke:#474545;stroke-width:7;stroke-linecap:round;stroke-linejoin:miter;stroke-miterlimit:10;stroke-dasharray:none;stroke-opacity:1"
             d="m 0,0 c -15.065,15.049 -24.386,35.848 -24.386,58.824 0,23.066 9.397,43.933 24.566,58.995" /></g><g
           transform="translate(274.9034,283.2653)"
           id="g46"><path
             id="path48"
             style="fill:none;stroke:#474545;stroke-width:7;stroke-linecap:round;stroke-linejoin:miter;stroke-miterlimit:10;stroke-dasharray:none;stroke-opacity:1"
             d="m 0,0 c -10.863,10.832 -17.586,25.814 -17.586,42.367 0,16.63 6.789,31.671 17.741,42.515" /></g><g
           transform="translate(371.6563,367.7338)"
           id="g50"><path
             id="path52"
             style="fill:none;stroke:#474545;stroke-width:7;stroke-linecap:round;stroke-linejoin:miter;stroke-miterlimit:10;stroke-dasharray:none;stroke-opacity:1"
             d="m 0,0 c 10.709,-10.811 17.327,-25.682 17.327,-42.102 0,-16.404 -6.606,-31.262 -17.299,-42.071" /></g><g
           transform="translate(349.1454,351.2784)"
           id="g54"><path
             id="path56"
             style="fill:none;stroke:#474545;stroke-width:7;stroke-linecap:round;stroke-linejoin:miter;stroke-miterlimit:10;stroke-dasharray:none;stroke-opacity:1"
             d="m 0,0 c 6.507,-6.595 10.527,-15.65 10.527,-25.646 0,-9.97 -3.999,-19.002 -10.475,-25.592" /></g><g
           transform="translate(297.4155,299.722)"
           id="g58"><path
             id="path60"
             style="fill:none;stroke:#474545;stroke-width:7;stroke-linecap:round;stroke-linejoin:miter;stroke-miterlimit:10;stroke-dasharray:none;stroke-opacity:1"
             d="m 0,0 c -6.661,6.616 -10.787,15.78 -10.787,25.91 0,10.195 4.182,19.41 10.918,26.035" /></g><path
           id="path62"
           style="fill:#474545;fill-opacity:1;fill-rule:nonzero;stroke:none"
           d="M 377.437,158 H 123.136 v 49 h 254.301 z" /><path
           id="path64"
           style="fill:#474545;fill-opacity:1;fill-rule:nonzero;stroke:none"
           d="m 169,158.594 h -29 v -7.187 h 29 z" /><path
           id="path66"
           style="fill:#474545;fill-opacity:1;fill-rule:nonzero;stroke:none"
           d="m 358.801,158.594 h -29 v -7.187 h 29 z" /><g
           transform="translate(314,200)"
           id="g68"><path
             id="path70"
             style="fill:#474545;fill-opacity:1;fill-rule:nonzero;stroke:none"
             d="m 0,0 5,175.667 c 0.063,2.209 1.905,3.949 4.114,3.886 2.129,-0.061 3.822,-1.785 3.886,-3.886 L 18,0 C 18.141,-4.971 14.227,-9.115 9.256,-9.256 4.286,-9.398 0.141,-5.483 0,-0.512 -0.005,-0.35 -0.004,-0.16 0,0" /></g><g
           transform="translate(269.1472,182.3889)"
           id="g72"><path
             id="path74"
             style="fill:#f7f1eb;fill-opacity:1;fill-rule:nonzero;stroke:none"
             d="m 0,0 c 0,-2.565 -2.079,-4.644 -4.644,-4.644 -2.565,0 -4.644,2.079 -4.644,4.644 0,2.565 2.079,4.644 4.644,4.644 C -2.079,4.644 0,2.565 0,0" /></g><g
           transform="translate(290.6659,182.3889)"
           id="g76"><path
             id="path78"
             style="fill:#f7f1eb;fill-opacity:1;fill-rule:nonzero;stroke:none"
             d="m 0,0 c 0,-2.565 -2.079,-4.644 -4.644,-4.644 -2.565,0 -4.644,2.079 -4.644,4.644 0,2.565 2.079,4.644 4.644,4.644 C -2.079,4.644 0,2.565 0,0" /></g><g
           transform="translate(312.1847,182.3889)"
           id="g80"><path
             id="path82"
             style="fill:#f7f1eb;fill-opacity:1;fill-rule:nonzero;stroke:none"
             d="m 0,0 c 0,-2.565 -2.079,-4.644 -4.644,-4.644 -2.565,0 -4.644,2.079 -4.644,4.644 0,2.565 2.079,4.644 4.644,4.644 C -2.079,4.644 0,2.565 0,0" /></g><g
           transform="translate(333.7034,182.3889)"
           id="g84"><path
             id="path86"
             style="fill:#f7f1eb;fill-opacity:1;fill-rule:nonzero;stroke:none"
             d="m 0,0 c 0,-2.565 -2.079,-4.644 -4.644,-4.644 -2.565,0 -4.644,2.079 -4.644,4.644 0,2.565 2.079,4.644 4.644,4.644 C -2.079,4.644 0,2.565 0,0" /></g><g
           transform="translate(355.2222,182.3889)"
           id="g88"><path
             id="path90"
             style="fill:#f7f1eb;fill-opacity:1;fill-rule:nonzero;stroke:none"
             d="m 0,0 c 0,-2.565 -2.079,-4.644 -4.644,-4.644 -2.565,0 -4.644,2.079 -4.644,4.644 0,2.565 2.079,4.644 4.644,4.644 C -2.079,4.644 0,2.565 0,0" /></g><g
           transform="translate(161.1825,179.3889)"
           id="g92"><path
             id="path94"
             style="fill:#f7f1eb;fill-opacity:1;fill-rule:nonzero;stroke:none"
             d="m 0,0 h -17 c -1.65,0 -3,1.35 -3,3 0,1.65 1.35,3 3,3 H 0 C 1.65,6 3,4.65 3,3 3,1.35 1.65,0 0,0" /></g><g
           transform="translate(187.1472,182.3889)"
           id="g96"><path
             id="path98"
             style="fill:#f7f1eb;fill-opacity:1;fill-rule:nonzero;stroke:none"
             d="m 0,0 c 0,-2.565 -2.079,-4.644 -4.644,-4.644 -2.565,0 -4.644,2.079 -4.644,4.644 0,2.565 2.079,4.644 4.644,4.644 C -2.079,4.644 0,2.565 0,0" /></g><g
           transform="translate(208.6659,182.3889)"
           id="g100"><path
             id="path102"
             style="fill:#f7f1eb;fill-opacity:1;fill-rule:nonzero;stroke:none"
             d="m 0,0 c 0,-2.565 -2.079,-4.644 -4.644,-4.644 -2.565,0 -4.644,2.079 -4.644,4.644 0,2.565 2.079,4.644 4.644,4.644 C -2.079,4.644 0,2.565 0,0" /></g></g></g></g></svg>
